<svg id="Layer_1" data-name="Layer 1" xmlns="http://www.w3.org/2000/svg" viewBox="0 0 280 300"><defs><style>.cls-1{fill:#ed2517;}</style></defs><path class="cls-1" d="M70.52,124.31H62.46c0,11,0,18.06-.05,29-3.46-10.7-6.93-17.78-10.4-29H44.27v51.38c2.61-.37,5.41-.73,8-1.07,0-10.74,0-17.34,0-28.08,3.6,10.57,5.81,16.81,9.4,26.85,2.81-.32,5.9-.71,8.72-1q0-24,.08-48.08"/><path class="cls-1" d="M100.63,124.31H78.3l-.09,47.4q11.21-1,22.43-1.66c0-2.31,0-5.63,0-7.94-4.87.29-9.52.61-14.37.93,0-4.25,0-7.76,0-12,3.54-.06,7.28,0,10.9-.07,0-2.32,0-5.65,0-8-3.59.06-7.38.07-10.91.13,0-4.24,0-6.57,0-10.82,2.23,0,4.4,0,6.57,0H95.2l5.48,0c0-2.31-.06-5.63-.05-7.94"/><path class="cls-1" d="M130.72,124.34H105.86c0,2.29,0,5.6,0,7.89h1.07l3.24,0,3.24,0h.83c0,12.74,0,24.37,0,37.11,2.63-.1,5.44-.18,8.08-.25,0-12.66,0-24.23,0-36.9l8.43,0v-7.88"/><path class="cls-1" d="M158.38,124.31H136q0,22.31,0,44.62h2.62l5.37,0c0-6.31,0-12.07,0-18.38h7.69l3.23,0c0-2.26,0-5.62,0-7.89H143.93v-10.4h14.45v-8"/><path class="cls-1" d="M163.61,124.35c0,15-.05,30,0,45.05,7.16.26,14.7.55,21.86,1,0-2.31,0-5.64,0-7.95-4.53-.26-9.25-.58-13.78-.77,0-12.86.05-24.52,0-37.38h-8.06"/><path class="cls-1" d="M192.05,124.35l.09,46.59c2.63.2,5.35.42,8,.65q0-23.61,0-47.24h-8.06"/><path class="cls-1" d="M207,124.35c3.23,7.85,6.17,15.72,9.45,24.06-3.4,8-6.87,16-10.27,23.65,2.82.28,5.73.69,8.54,1,2-4.95,3.86-8.76,5.88-13.84,2,5.41,3.85,9.6,5.86,15.18,2.81.37,6.45.89,9.25,1.29-3.4-9.09-7.12-18.55-10.54-27.14,3.41-8.07,6.88-15.77,10.42-24.2h-8.8c-2.18,5.21-3.69,8.56-5.78,13.52-1.95-5.16-3.25-8.5-5.21-13.52H207"/></svg>